# xmcd
#
# Track frame offsets: 
#        150
#        11862
#        23014
#        31856
#        42989
#        54841
#        65606
#        78265
#        91885
#        101885
#        114974
#        123117
#        138327
#        148478
#        159843
#        172336
#        181957
#        194706
#        206216
#        218351
#
# Disc length: 3041 seconds
#
# Revision: 3
# Processed by: cddbd v1.5.2PL0 Copyright (c) Steve Scherf et al.
# Submitted via: ExactAudioCopy v1.3
#
DISCID=180bdf14
DTITLE=Porter Wagoner and Dolly Parton - The Essential Porter and Dolly
DYEAR=1996
DGENRE=Country
TTITLE0=The Last Thing On My Mind
TTITLE1=Holding On To Nothin'
TTITLE2=We'll Get Ahead Someday
TTITLE3=Yours Love
TTITLE4=Always, Always
TTITLE5=Just Someone I Used To Know
TTITLE6=Tomorrow Is Forever
TTITLE7=Daddy Was An Old Time Preacher Man
TTITLE8=Better Move It On Home
TTITLE9=The Right Combination
TTITLE10=Burning The Midnight Oil
TTITLE11=Lost Forever In Your Kiss 
TTITLE12=Together Always
TTITLE13=We Found It
TTITLE14=Say Forever You'll Be Mine 
TTITLE15=If Teardrops Were Pennies
TTITLE16=Please Don't Stop Loving Me
TTITLE17=Is Forever Longer Than Always
TTITLE18=If You Go, I'll Follow You
TTITLE19=Making Plans
EXTD=ID3G:   2
EXTT0=
EXTT1=
EXTT2=
EXTT3=
EXTT4=
EXTT5=
EXTT6=
EXTT7=
EXTT8=
EXTT9=
EXTT10=
EXTT11=
EXTT12=
EXTT13=
EXTT14=
EXTT15=
EXTT16=
EXTT17=
EXTT18=
EXTT19=
PLAYORDER=
